<?xml version="1.0" encoding="UTF-8"?>
<svg xmlns="http://www.w3.org/2000/svg" xmlns:xlink="http://www.w3.org/1999/xlink" width="100pt" height="70pt" viewBox="0 0 100 70" version="1.1">
<g id="surface1">
<path style=" stroke:none;fill-rule:nonzero;fill:rgb(60.784314%,60%,65.098039%);fill-opacity:1;" d="M 15.148438 4.339844 C 15.636719 3.953125 16.269531 3.648438 16.90625 3.753906 C 17.539062 3.90625 18.203125 4.152344 18.585938 4.710938 C 19.25 5.648438 19.140625 6.976562 18.457031 7.875 L 18.402344 7.820312 C 18.25 7.667969 18.101562 7.503906 17.914062 7.386719 C 17.710938 7.253906 17.382812 7.367188 17.324219 7.613281 C 17.253906 7.96875 17.425781 8.3125 17.597656 8.613281 C 16.992188 8.738281 16.335938 8.820312 15.75 8.570312 C 14.875 8.210938 14.199219 7.351562 14.125 6.398438 C 14.171875 5.613281 14.601562 4.886719 15.148438 4.339844 Z M 15.148438 4.339844 "/>
<path style=" stroke:none;fill-rule:nonzero;fill:rgb(60.784314%,60%,65.098039%);fill-opacity:1;" d="M 24.320312 15.050781 C 24.820312 14.964844 25.289062 14.734375 25.800781 14.714844 C 26.933594 14.675781 28.089844 14.746094 29.167969 15.125 C 29.484375 15.238281 29.792969 15.410156 29.980469 15.703125 C 29.515625 15.785156 29.078125 15.976562 28.640625 16.140625 C 26.90625 16.820312 25.203125 17.582031 23.570312 18.472656 C 22.851562 18.867188 22.128906 19.273438 21.507812 19.816406 C 21.0625 20.210938 20.539062 20.519531 20.160156 20.984375 C 20.03125 19.773438 20.277344 18.488281 21.015625 17.5 C 21.335938 16.976562 21.855469 16.636719 22.277344 16.203125 C 22.859375 15.667969 23.578125 15.304688 24.320312 15.050781 Z M 24.320312 15.050781 "/>
<path style=" stroke:none;fill-rule:nonzero;fill:rgb(60.784314%,60%,65.098039%);fill-opacity:1;" d="M 56.402344 22.003906 C 56.847656 21.582031 57.488281 21.402344 58.09375 21.480469 C 58.835938 21.59375 59.484375 22.125 59.777344 22.808594 C 60.171875 23.726562 59.925781 24.898438 59.109375 25.511719 C 58.371094 26.082031 57.246094 26.0625 56.546875 25.4375 C 56.898438 25.105469 57.300781 24.652344 57.183594 24.132812 C 56.828125 23.679688 56.128906 23.742188 55.671875 24.003906 C 55.566406 23.273438 55.820312 22.480469 56.402344 22.003906 Z M 56.402344 22.003906 "/>
<path style=" stroke:none;fill-rule:nonzero;fill:rgb(60.784314%,60%,65.098039%);fill-opacity:1;" d="M 49.425781 23.734375 C 50.816406 23.597656 52.023438 24.46875 53.050781 25.296875 C 53.5625 25.800781 53.921875 26.464844 54.058594 27.171875 C 54.226562 28.15625 54.175781 29.179688 53.828125 30.121094 C 53.542969 31.058594 53.066406 32.074219 52.132812 32.507812 C 52.121094 31.964844 52 31.433594 51.90625 30.902344 C 51.515625 28.800781 50.902344 26.734375 50.007812 24.792969 C 49.847656 24.421875 49.664062 24.058594 49.425781 23.734375 Z M 49.425781 23.734375 "/>
<path style=" stroke:none;fill-rule:nonzero;fill:rgb(60.784314%,60%,65.098039%);fill-opacity:1;" d="M 14.3125 39.816406 C 15.050781 39.542969 15.855469 39.804688 16.492188 40.210938 C 17.886719 41.023438 19.207031 42.015625 20.1875 43.3125 C 20.84375 44.183594 21.425781 45.121094 21.890625 46.109375 C 22.222656 46.832031 22.480469 47.605469 22.496094 48.40625 C 22.519531 49.175781 22.042969 49.855469 21.503906 50.355469 C 20.882812 50.859375 20.277344 51.390625 19.574219 51.777344 C 18.671875 52.25 17.609375 52.484375 16.59375 52.296875 C 15.351562 52.089844 14.183594 51.492188 13.242188 50.660156 C 13.582031 50.445312 13.960938 50.140625 13.960938 49.699219 C 14.027344 48.871094 13.21875 48.152344 12.414062 48.214844 C 12.105469 48.351562 11.914062 48.644531 11.691406 48.886719 C 11.1875 48.09375 10.789062 47.160156 10.882812 46.203125 C 11.136719 44.503906 11.695312 42.816406 12.714844 41.414062 C 12.820312 41.285156 12.832031 41.117188 12.847656 40.957031 C 13.359375 40.609375 13.710938 40.035156 14.3125 39.816406 Z M 14.3125 39.816406 "/>
<path style=" stroke:none;fill-rule:nonzero;fill:rgb(60.784314%,60%,65.098039%);fill-opacity:1;" d="M 4.550781 52.339844 C 5.035156 51.289062 6.148438 50.578125 7.300781 50.570312 C 8.054688 50.636719 8.765625 50.929688 9.4375 51.257812 C 9.90625 51.5 10.226562 51.957031 10.382812 52.453125 C 10.78125 53.550781 10.558594 54.828125 9.835938 55.746094 C 9.386719 56.289062 8.839844 56.800781 8.132812 56.96875 C 7.085938 57.277344 5.929688 56.898438 5.167969 56.140625 C 4.261719 55.132812 3.929688 53.574219 4.550781 52.339844 Z M 4.550781 52.339844 "/>
<path style=" stroke:none;fill-rule:nonzero;fill:rgb(96.862745%,59.215686%,15.294118%);fill-opacity:1;" d="M 17.324219 7.613281 C 17.382812 7.367188 17.710938 7.253906 17.914062 7.386719 C 18.101562 7.503906 18.25 7.667969 18.402344 7.820312 C 18.683594 8.164062 19.007812 8.464844 19.3125 8.789062 C 20.539062 10.140625 21.644531 11.59375 22.8125 13 C 23.347656 13.652344 23.878906 14.308594 24.398438 14.96875 L 24.320312 15.050781 C 23.578125 15.304688 22.859375 15.667969 22.277344 16.203125 C 22.027344 15.945312 21.855469 15.632812 21.667969 15.332031 C 20.632812 13.683594 19.632812 12.015625 18.699219 10.304688 C 18.367188 9.71875 17.933594 9.195312 17.597656 8.613281 C 17.425781 8.3125 17.253906 7.96875 17.324219 7.613281 Z M 17.324219 7.613281 "/>
<path style=" stroke:none;fill-rule:nonzero;fill:rgb(96.862745%,59.215686%,15.294118%);fill-opacity:1;" d="M 55.671875 24.003906 C 56.128906 23.742188 56.828125 23.679688 57.183594 24.132812 C 57.300781 24.652344 56.898438 25.105469 56.546875 25.4375 C 55.769531 26.085938 54.957031 26.699219 54.058594 27.171875 C 53.921875 26.464844 53.5625 25.800781 53.050781 25.296875 C 53.871094 24.757812 54.832031 24.503906 55.671875 24.003906 Z M 55.671875 24.003906 "/>
<path style=" stroke:none;fill-rule:nonzero;fill:rgb(96.862745%,59.215686%,15.294118%);fill-opacity:1;" d="M 11.691406 48.886719 C 11.914062 48.644531 12.105469 48.351562 12.414062 48.214844 C 13.21875 48.152344 14.027344 48.871094 13.960938 49.699219 C 13.960938 50.140625 13.582031 50.445312 13.242188 50.660156 C 12.769531 50.949219 12.28125 51.214844 11.820312 51.519531 C 11.339844 51.828125 10.898438 52.195312 10.382812 52.453125 C 10.226562 51.957031 9.90625 51.5 9.4375 51.257812 C 10.023438 50.320312 10.980469 49.710938 11.691406 48.886719 Z M 11.691406 48.886719 "/>
<path style=" stroke:none;fill-rule:nonzero;fill:rgb(47.058824%,47.058824%,50.196078%);fill-opacity:1;" d="M 32.308594 15.265625 C 33.550781 15.066406 34.8125 15.117188 36.070312 15.140625 C 39.753906 15.390625 43.429688 16.808594 46.097656 19.40625 C 46.472656 19.664062 46.699219 20.066406 47.03125 20.371094 C 47.972656 21.382812 48.691406 22.570312 49.425781 23.734375 C 49.664062 24.058594 49.847656 24.421875 50.007812 24.792969 C 50.902344 26.734375 51.515625 28.800781 51.90625 30.902344 C 52 31.433594 52.121094 31.964844 52.132812 32.507812 C 52.089844 33.445312 52.296875 34.378906 52.167969 35.3125 C 52.105469 35.820312 52.160156 36.335938 52.070312 36.835938 C 51.925781 37.777344 51.511719 38.648438 51.09375 39.496094 C 50.894531 39.917969 50.453125 40.128906 50.085938 40.378906 C 49.710938 40.621094 49.214844 40.84375 48.777344 40.621094 C 48.089844 40.230469 47.757812 39.445312 47.597656 38.703125 C 47.425781 38.015625 47.484375 37.304688 47.476562 36.601562 C 47.367188 34.644531 47.257812 32.671875 46.824219 30.753906 C 46.53125 29.492188 46.035156 28.226562 45.0625 27.335938 C 44.449219 26.816406 43.746094 26.398438 42.988281 26.121094 C 41.859375 25.785156 40.679688 25.589844 39.496094 25.617188 C 38.070312 25.585938 36.664062 25.882812 35.289062 26.242188 C 33.902344 26.601562 32.589844 27.195312 31.292969 27.800781 C 30.265625 28.238281 29.292969 28.785156 28.304688 29.304688 C 27.75 29.601562 27.199219 29.917969 26.703125 30.300781 C 25.800781 30.992188 24.828125 31.617188 24.089844 32.492188 C 23.347656 33.367188 22.6875 34.367188 22.460938 35.507812 C 22.179688 37.191406 22.5 38.921875 23.101562 40.5 C 23.785156 42.246094 24.808594 43.851562 26.074219 45.230469 C 26.949219 46.328125 28.117188 47.132812 29.246094 47.941406 C 29.867188 48.347656 30.273438 49.066406 30.277344 49.808594 C 30.21875 50.429688 29.746094 50.914062 29.257812 51.253906 C 28.734375 51.578125 28.117188 51.789062 27.496094 51.773438 C 26.035156 51.757812 24.566406 51.585938 23.179688 51.113281 C 22.597656 50.917969 22.058594 50.613281 21.503906 50.355469 C 22.042969 49.855469 22.519531 49.175781 22.496094 48.40625 C 22.480469 47.605469 22.222656 46.832031 21.890625 46.109375 C 21.425781 45.121094 20.84375 44.183594 20.1875 43.3125 C 19.207031 42.015625 17.886719 41.023438 16.492188 40.210938 C 15.855469 39.804688 15.050781 39.542969 14.3125 39.816406 C 13.710938 40.035156 13.359375 40.609375 12.847656 40.957031 C 12.695312 40.519531 12.765625 40.046875 12.703125 39.59375 C 12.628906 39.0625 12.671875 38.527344 12.621094 38 C 12.539062 37.269531 12.578125 36.53125 12.566406 35.796875 C 12.542969 34.363281 12.570312 32.917969 12.792969 31.496094 C 13.007812 30.179688 13.546875 28.941406 14.160156 27.765625 C 14.828125 26.519531 15.679688 25.375 16.636719 24.339844 C 17.164062 23.734375 17.722656 23.15625 18.347656 22.65625 C 18.90625 22.050781 19.636719 21.621094 20.160156 20.984375 C 20.539062 20.519531 21.0625 20.210938 21.507812 19.816406 C 22.128906 19.273438 22.851562 18.867188 23.570312 18.472656 C 25.203125 17.582031 26.90625 16.820312 28.640625 16.140625 C 29.078125 15.976562 29.515625 15.785156 29.980469 15.703125 C 30.769531 15.644531 31.515625 15.335938 32.308594 15.265625 Z M 32.308594 15.265625 "/>
<path style=" stroke:none;fill-rule:nonzero;fill:rgb(27.45098%,27.45098%,27.45098%);fill-opacity:1;" d="M 35.285156 38.074219 C 35.835938 36.96875 37.453125 36.804688 38.375 37.527344 C 38.980469 38.019531 39.152344 38.847656 39.15625 39.589844 C 39.167969 41.6875 39.164062 43.785156 39.160156 45.882812 C 39.882812 45.085938 40.695312 44.324219 41.699219 43.90625 C 42.960938 43.382812 44.378906 43.273438 45.714844 43.53125 C 47.109375 43.800781 48.390625 44.664062 49.085938 45.914062 C 49.777344 47.007812 49.859375 48.339844 49.886719 49.597656 C 49.890625 52.265625 49.886719 54.933594 49.890625 57.601562 C 49.898438 58.246094 49.851562 58.933594 49.503906 59.5 C 48.828125 60.640625 46.921875 60.734375 46.152344 59.65625 C 45.785156 59.117188 45.71875 58.441406 45.714844 57.808594 C 45.710938 55.472656 45.714844 53.136719 45.710938 50.800781 C 45.699219 49.695312 45.617188 48.527344 45.039062 47.558594 C 44.527344 46.75 43.480469 46.550781 42.59375 46.613281 C 41.019531 46.695312 39.648438 47.984375 39.355469 49.511719 C 39.210938 50.265625 39.179688 51.035156 39.164062 51.800781 C 39.15625 53.835938 39.167969 55.867188 39.160156 57.902344 C 39.152344 58.601562 39.007812 59.371094 38.480469 59.875 C 37.972656 60.378906 37.195312 60.476562 36.519531 60.355469 C 36.082031 60.277344 35.667969 60.042969 35.414062 59.671875 C 35.058594 59.160156 34.976562 58.515625 34.96875 57.90625 C 34.96875 52.039062 34.96875 46.167969 34.96875 40.300781 C 34.964844 39.550781 34.925781 38.757812 35.285156 38.074219 Z M 35.285156 38.074219 "/>
<path style=" stroke:none;fill-rule:nonzero;fill:rgb(27.45098%,27.45098%,27.45098%);fill-opacity:1;" d="M 93.441406 37.359375 C 94.070312 37.210938 94.761719 37.328125 95.28125 37.714844 C 96.148438 38.304688 96.253906 39.601562 95.765625 40.464844 C 95.070312 41.589844 93.316406 41.707031 92.402344 40.792969 C 91.902344 40.3125 91.78125 39.554688 91.90625 38.898438 C 92.050781 38.136719 92.707031 37.542969 93.441406 37.359375 Z M 93.441406 37.359375 "/>
<path style=" stroke:none;fill-rule:nonzero;fill:rgb(27.45098%,27.45098%,27.45098%);fill-opacity:1;" d="M 57.3125 43.90625 C 59.160156 43.230469 61.171875 43.222656 63.105469 43.386719 C 64.566406 43.539062 66.144531 43.898438 67.175781 45.027344 C 68.164062 46.136719 68.386719 47.695312 68.464844 49.128906 C 68.496094 50.984375 68.453125 52.84375 68.449219 54.703125 C 68.453125 55.695312 68.710938 56.660156 69 57.601562 C 69.136719 58.144531 69.371094 58.753906 69.085938 59.289062 C 68.710938 60 67.894531 60.476562 67.089844 60.390625 C 66.6875 60.347656 66.332031 60.121094 66.039062 59.851562 C 65.472656 59.316406 65.050781 58.652344 64.632812 58 C 63.273438 59.066406 61.742188 60.015625 60.007812 60.285156 C 58.476562 60.523438 56.820312 60.445312 55.460938 59.640625 C 54.308594 58.988281 53.457031 57.816406 53.226562 56.511719 C 53.050781 55.46875 53.195312 54.347656 53.746094 53.433594 C 54.242188 52.609375 55.011719 51.972656 55.886719 51.585938 C 56.804688 51.160156 57.816406 51.039062 58.796875 50.816406 C 60.660156 50.441406 62.523438 50.03125 64.351562 49.503906 C 64.308594 48.617188 64.195312 47.667969 63.644531 46.945312 C 63.117188 46.339844 62.253906 46.246094 61.5 46.210938 C 60.453125 46.195312 59.296875 46.246094 58.445312 46.9375 C 57.660156 47.523438 57.273438 48.449219 56.6875 49.207031 C 56.433594 49.523438 55.980469 49.527344 55.605469 49.53125 C 54.839844 49.542969 54.0625 48.992188 53.933594 48.214844 C 53.835938 47.511719 54.039062 46.796875 54.386719 46.1875 C 55.003906 45.0625 56.144531 44.355469 57.3125 43.90625 M 59.296875 53.242188 C 58.652344 53.421875 58.007812 53.773438 57.621094 54.335938 C 57.132812 55.160156 57.347656 56.304688 58.070312 56.929688 C 58.738281 57.5625 59.730469 57.675781 60.609375 57.558594 C 61.898438 57.394531 63.222656 56.738281 63.855469 55.558594 C 64.390625 54.457031 64.347656 53.199219 64.363281 52.003906 C 62.714844 52.5625 60.984375 52.816406 59.296875 53.242188 Z M 59.296875 53.242188 "/>
<path style=" stroke:none;fill-rule:nonzero;fill:rgb(27.45098%,27.45098%,27.45098%);fill-opacity:1;" d="M 72.824219 43.816406 C 73.648438 43.09375 75.117188 43.242188 75.730469 44.175781 C 76.136719 44.765625 76.140625 45.515625 76.128906 46.207031 C 77.027344 45.113281 78.128906 44.117188 79.503906 43.6875 C 81.277344 43.140625 83.285156 43.371094 84.886719 44.316406 C 85.984375 44.945312 86.859375 45.925781 87.445312 47.039062 C 88.300781 48.609375 88.566406 50.433594 88.527344 52.203125 C 88.480469 54.121094 87.984375 56.074219 86.863281 57.652344 C 85.789062 59.164062 84.058594 60.183594 82.210938 60.363281 C 80.804688 60.496094 79.296875 60.304688 78.113281 59.480469 C 77.351562 58.992188 76.742188 58.3125 76.136719 57.652344 C 76.125 59.734375 76.136719 61.820312 76.128906 63.902344 C 76.113281 64.660156 76.019531 65.5 75.484375 66.082031 C 75.058594 66.542969 74.390625 66.652344 73.792969 66.585938 C 73.320312 66.546875 72.8125 66.359375 72.570312 65.925781 C 72.25 65.339844 72.1875 64.65625 72.171875 64 C 72.167969 57.898438 72.171875 51.800781 72.167969 45.699219 C 72.171875 45.03125 72.304688 44.285156 72.824219 43.816406 M 79.648438 46.578125 C 78.515625 46.800781 77.550781 47.605469 77.011719 48.609375 C 76.375 49.832031 76.277344 51.253906 76.355469 52.605469 C 76.4375 53.953125 76.902344 55.351562 77.949219 56.257812 C 78.871094 57.109375 80.257812 57.414062 81.457031 57.035156 C 82.3125 56.765625 83.03125 56.140625 83.480469 55.363281 C 84.277344 54.027344 84.410156 52.40625 84.277344 50.886719 C 84.152344 49.550781 83.664062 48.164062 82.605469 47.285156 C 81.800781 46.605469 80.675781 46.359375 79.648438 46.578125 Z M 79.648438 46.578125 "/>
<path style=" stroke:none;fill-rule:nonzero;fill:rgb(27.45098%,27.45098%,27.45098%);fill-opacity:1;" d="M 93.347656 43.46875 C 94.039062 43.292969 94.839844 43.429688 95.363281 43.9375 C 95.878906 44.40625 96.058594 45.125 96.050781 45.800781 C 96.050781 49.832031 96.050781 53.863281 96.050781 57.898438 C 96.046875 58.574219 95.902344 59.3125 95.402344 59.808594 C 94.851562 60.390625 93.949219 60.539062 93.210938 60.28125 C 92.632812 60.078125 92.199219 59.570312 92.019531 58.992188 C 91.804688 58.351562 91.871094 57.664062 91.863281 57 C 91.867188 53.199219 91.851562 49.402344 91.871094 45.605469 C 91.871094 44.683594 92.398438 43.691406 93.347656 43.46875 Z M 93.347656 43.46875 "/>
</g>
</svg>
